<svg width="199" height="40" viewBox="0 0 199 40" fill="none" xmlns="http://www.w3.org/2000/svg">
<path fill-rule="evenodd" clip-rule="evenodd" d="M7.5 10C7.5 8.61929 8.61929 7.5 10 7.5H13.75C15.1307 7.5 16.25 8.61929 16.25 10V30C16.25 31.3807 15.1307 32.5 13.75 32.5H10C8.61929 32.5 7.5 31.3807 7.5 30V10ZM13.75 10H10V30H13.75V10Z" fill="#00B37E"/>
<path fill-rule="evenodd" clip-rule="evenodd" d="M23.75 10C23.75 8.61929 24.8693 7.5 26.25 7.5H30C31.3807 7.5 32.5 8.61929 32.5 10V30C32.5 31.3807 31.3807 32.5 30 32.5H26.25C24.8693 32.5 23.75 31.3807 23.75 30V10ZM30 10H26.25V30H30V10Z" fill="#00B37E"/>
<path fill-rule="evenodd" clip-rule="evenodd" d="M30 12.5C30 11.8096 30.5596 11.25 31.25 11.25H35C35.663 11.25 36.2989 11.5134 36.7678 11.9822C37.2366 12.4511 37.5 13.087 37.5 13.75V26.25C37.5 26.913 37.2366 27.5489 36.7678 28.0178C36.2989 28.4866 35.663 28.75 35 28.75H31.25C30.5596 28.75 30 28.1904 30 27.5C30 26.8096 30.5596 26.25 31.25 26.25H35L35 13.75L31.25 13.75C30.5596 13.75 30 13.1904 30 12.5Z" fill="#00B37E"/>
<path fill-rule="evenodd" clip-rule="evenodd" d="M3.23223 11.9822C3.70107 11.5134 4.33696 11.25 5 11.25H8.75C9.44036 11.25 10 11.8096 10 12.5C10 13.1904 9.44036 13.75 8.75 13.75L5 13.75V26.25H8.75C9.44036 26.25 10 26.8096 10 27.5C10 28.1904 9.44036 28.75 8.75 28.75H5C4.33696 28.75 3.70108 28.4866 3.23223 28.0178C2.76339 27.5489 2.5 26.913 2.5 26.25V13.75C2.5 13.087 2.76339 12.4511 3.23223 11.9822Z" fill="#00B37E"/>
<path fill-rule="evenodd" clip-rule="evenodd" d="M13.75 20C13.75 19.3096 14.3096 18.75 15 18.75H25C25.6904 18.75 26.25 19.3096 26.25 20C26.25 20.6904 25.6904 21.25 25 21.25H15C14.3096 21.25 13.75 20.6904 13.75 20Z" fill="#00B37E"/>
<path fill-rule="evenodd" clip-rule="evenodd" d="M35 20C35 19.3096 35.5596 18.75 36.25 18.75H38.75C39.4404 18.75 40 19.3096 40 20C40 20.6904 39.4404 21.25 38.75 21.25H36.25C35.5596 21.25 35 20.6904 35 20Z" fill="#00B37E"/>
<path fill-rule="evenodd" clip-rule="evenodd" d="M0 20C0 19.3096 0.559644 18.75 1.25 18.75H3.75C4.44036 18.75 5 19.3096 5 20C5 20.6904 4.44036 21.25 3.75 21.25H1.25C0.559644 21.25 0 20.6904 0 20Z" fill="#00B37E"/>
<path d="M67.1074 17.7012V20.9004H56.7168V17.7012H67.1074ZM57.9336 9.59375V29.5H53.832V9.59375H57.9336ZM70.0332 9.59375V29.5H65.9453V9.59375H70.0332ZM80.1641 29.7734C79.0156 29.7734 77.9857 29.5911 77.0742 29.2266C76.1628 28.8529 75.388 28.3379 74.75 27.6816C74.1211 27.0254 73.638 26.2643 73.3008 25.3984C72.9635 24.5234 72.7949 23.5938 72.7949 22.6094V22.0625C72.7949 20.9414 72.9544 19.916 73.2734 18.9863C73.5924 18.0566 74.0482 17.25 74.6406 16.5664C75.2422 15.8828 75.9714 15.3587 76.8281 14.9941C77.6849 14.6204 78.651 14.4336 79.7266 14.4336C80.7747 14.4336 81.7044 14.6068 82.5156 14.9531C83.3268 15.2995 84.0059 15.7917 84.5527 16.4297C85.1087 17.0677 85.528 17.8333 85.8105 18.7266C86.0931 19.6107 86.2344 20.5951 86.2344 21.6797V23.3203H74.4766V20.6953H82.3652V20.3945C82.3652 19.8477 82.265 19.36 82.0645 18.9316C81.873 18.4941 81.5814 18.1478 81.1895 17.8926C80.7975 17.6374 80.2962 17.5098 79.6855 17.5098C79.166 17.5098 78.7194 17.6237 78.3457 17.8516C77.972 18.0794 77.6667 18.3984 77.4297 18.8086C77.2018 19.2188 77.0286 19.7018 76.9102 20.2578C76.8008 20.8047 76.7461 21.4062 76.7461 22.0625V22.6094C76.7461 23.2018 76.8281 23.7487 76.9922 24.25C77.1654 24.7513 77.4069 25.1842 77.7168 25.5488C78.0358 25.9134 78.4186 26.196 78.8652 26.3965C79.321 26.597 79.8359 26.6973 80.4102 26.6973C81.1211 26.6973 81.7819 26.5605 82.3926 26.2871C83.0124 26.0046 83.5456 25.5807 83.9922 25.0156L85.9062 27.0938C85.5964 27.5404 85.1725 27.9688 84.6348 28.3789C84.1061 28.7891 83.4681 29.1263 82.7207 29.3906C81.9733 29.6458 81.1211 29.7734 80.1641 29.7734ZM96.4609 26.1641V19.5742C96.4609 19.1003 96.3835 18.6947 96.2285 18.3574C96.0736 18.0111 95.832 17.7422 95.5039 17.5508C95.1849 17.3594 94.7702 17.2637 94.2598 17.2637C93.8223 17.2637 93.444 17.3411 93.125 17.4961C92.806 17.6419 92.5599 17.8561 92.3867 18.1387C92.2135 18.4121 92.127 18.7357 92.127 19.1094H88.1895C88.1895 18.4805 88.3353 17.8835 88.627 17.3184C88.9186 16.7533 89.3424 16.2565 89.8984 15.8281C90.4544 15.3906 91.1152 15.0488 91.8809 14.8027C92.6556 14.5566 93.5215 14.4336 94.4785 14.4336C95.627 14.4336 96.6478 14.625 97.541 15.0078C98.4342 15.3906 99.1361 15.9648 99.6465 16.7305C100.166 17.4961 100.426 18.4531 100.426 19.6016V25.9316C100.426 26.7428 100.476 27.4082 100.576 27.9277C100.676 28.4382 100.822 28.8848 101.014 29.2676V29.5H97.0352C96.8438 29.099 96.6979 28.5977 96.5977 27.9961C96.5065 27.3854 96.4609 26.7747 96.4609 26.1641ZM96.9805 20.4902L97.0078 22.7188H94.8066C94.2871 22.7188 93.8359 22.778 93.4531 22.8965C93.0703 23.015 92.7559 23.1836 92.5098 23.4023C92.2637 23.612 92.0814 23.8581 91.9629 24.1406C91.8535 24.4232 91.7988 24.7331 91.7988 25.0703C91.7988 25.4076 91.8763 25.7129 92.0312 25.9863C92.1862 26.2507 92.4095 26.4603 92.7012 26.6152C92.9928 26.7611 93.3346 26.834 93.7266 26.834C94.319 26.834 94.834 26.7155 95.2715 26.4785C95.709 26.2415 96.0462 25.9499 96.2832 25.6035C96.5293 25.2572 96.6569 24.929 96.666 24.6191L97.7051 26.2871C97.5592 26.6608 97.3587 27.0482 97.1035 27.4492C96.8574 27.8503 96.543 28.2285 96.1602 28.584C95.7773 28.9303 95.3171 29.2174 94.7793 29.4453C94.2415 29.6641 93.6035 29.7734 92.8652 29.7734C91.9264 29.7734 91.0742 29.5866 90.3086 29.2129C89.5521 28.8301 88.9505 28.306 88.5039 27.6406C88.0664 26.9661 87.8477 26.2005 87.8477 25.3438C87.8477 24.569 87.9935 23.8809 88.2852 23.2793C88.5768 22.6777 89.0052 22.1719 89.5703 21.7617C90.1445 21.3424 90.86 21.028 91.7168 20.8184C92.5736 20.5996 93.5671 20.4902 94.6973 20.4902H96.9805ZM107.617 8.5V29.5H103.666V8.5H107.617ZM118.117 14.707V17.4961H109.504V14.707H118.117ZM111.637 11.0566H115.574V25.043C115.574 25.4714 115.629 25.7995 115.738 26.0273C115.857 26.2552 116.03 26.4147 116.258 26.5059C116.486 26.5879 116.773 26.6289 117.119 26.6289C117.365 26.6289 117.584 26.6198 117.775 26.6016C117.976 26.5742 118.145 26.5469 118.281 26.5195L118.295 29.418C117.958 29.5273 117.593 29.6139 117.201 29.6777C116.809 29.7415 116.376 29.7734 115.902 29.7734C115.036 29.7734 114.28 29.6322 113.633 29.3496C112.995 29.0579 112.503 28.5931 112.156 27.9551C111.81 27.3171 111.637 26.4785 111.637 25.4395V11.0566ZM124.201 8.5V29.5H120.264V8.5H124.201ZM123.641 21.584H122.561C122.57 20.554 122.706 19.6061 122.971 18.7402C123.235 17.8652 123.613 17.1087 124.105 16.4707C124.598 15.8236 125.186 15.3223 125.869 14.9668C126.562 14.6113 127.327 14.4336 128.166 14.4336C128.895 14.4336 129.556 14.5384 130.148 14.748C130.75 14.9486 131.265 15.2767 131.693 15.7324C132.131 16.179 132.468 16.7669 132.705 17.4961C132.942 18.2253 133.061 19.1094 133.061 20.1484V29.5H129.096V20.1211C129.096 19.4648 129 18.9499 128.809 18.5762C128.626 18.1934 128.357 17.9245 128.002 17.7695C127.656 17.6055 127.227 17.5234 126.717 17.5234C126.152 17.5234 125.669 17.6283 125.268 17.8379C124.876 18.0475 124.561 18.3392 124.324 18.7129C124.087 19.0775 123.914 19.5059 123.805 19.998C123.695 20.4902 123.641 21.0189 123.641 21.584ZM159.051 19.0957V26.9844C158.741 27.3581 158.262 27.7637 157.615 28.2012C156.968 28.6296 156.134 28.9987 155.113 29.3086C154.092 29.6185 152.857 29.7734 151.408 29.7734C150.123 29.7734 148.952 29.5638 147.895 29.1445C146.837 28.7161 145.926 28.0918 145.16 27.2715C144.404 26.4512 143.82 25.4486 143.41 24.2637C143 23.0697 142.795 21.707 142.795 20.1758V18.9316C142.795 17.4004 142.991 16.0378 143.383 14.8438C143.784 13.6497 144.354 12.6426 145.092 11.8223C145.83 11.002 146.71 10.3776 147.73 9.94922C148.751 9.52083 149.886 9.30664 151.135 9.30664C152.867 9.30664 154.288 9.58919 155.4 10.1543C156.512 10.7103 157.36 11.485 157.943 12.4785C158.536 13.4629 158.9 14.5931 159.037 15.8691H155.059C154.958 15.1947 154.767 14.6068 154.484 14.1055C154.202 13.6042 153.796 13.2122 153.268 12.9297C152.748 12.6471 152.074 12.5059 151.244 12.5059C150.561 12.5059 149.95 12.6471 149.412 12.9297C148.883 13.2031 148.437 13.6087 148.072 14.1465C147.708 14.6842 147.43 15.3496 147.238 16.1426C147.047 16.9355 146.951 17.8561 146.951 18.9043V20.1758C146.951 21.2148 147.051 22.1354 147.252 22.9375C147.452 23.7305 147.749 24.4004 148.141 24.9473C148.542 25.485 149.034 25.8906 149.617 26.1641C150.201 26.4375 150.88 26.5742 151.654 26.5742C152.301 26.5742 152.839 26.5195 153.268 26.4102C153.705 26.3008 154.056 26.1686 154.32 26.0137C154.594 25.8496 154.803 25.6947 154.949 25.5488V22.0215H151.203V19.0957H159.051ZM166.502 27.832L170.426 14.707H174.65L168.703 31.7285C168.576 32.1022 168.402 32.5033 168.184 32.9316C167.974 33.36 167.687 33.7656 167.322 34.1484C166.967 34.5404 166.516 34.8594 165.969 35.1055C165.431 35.3516 164.77 35.4746 163.986 35.4746C163.613 35.4746 163.307 35.4518 163.07 35.4062C162.833 35.3607 162.551 35.2969 162.223 35.2148V32.3301C162.323 32.3301 162.428 32.3301 162.537 32.3301C162.646 32.3392 162.751 32.3438 162.852 32.3438C163.371 32.3438 163.795 32.2845 164.123 32.166C164.451 32.0475 164.715 31.8652 164.916 31.6191C165.117 31.3822 165.276 31.0723 165.395 30.6895L166.502 27.832ZM164.861 14.707L168.074 25.4258L168.635 29.5957L165.955 29.8828L160.637 14.707H164.861ZM180.16 17.7695V29.5H176.209V14.707H179.914L180.16 17.7695ZM179.613 21.584H178.52C178.52 20.554 178.643 19.6061 178.889 18.7402C179.144 17.8652 179.513 17.1087 179.996 16.4707C180.488 15.8236 181.094 15.3223 181.814 14.9668C182.535 14.6113 183.368 14.4336 184.316 14.4336C184.973 14.4336 185.574 14.5339 186.121 14.7344C186.668 14.9258 187.137 15.2311 187.529 15.6504C187.93 16.0605 188.24 16.5983 188.459 17.2637C188.678 17.9199 188.787 18.7083 188.787 19.6289V29.5H184.85V20.0664C184.85 19.3919 184.758 18.8724 184.576 18.5078C184.394 18.1432 184.134 17.888 183.797 17.7422C183.469 17.5964 183.072 17.5234 182.607 17.5234C182.097 17.5234 181.65 17.6283 181.268 17.8379C180.894 18.0475 180.584 18.3392 180.338 18.7129C180.092 19.0775 179.91 19.5059 179.791 19.998C179.673 20.4902 179.613 21.0189 179.613 21.584ZM188.418 21.1328L187.01 21.3105C187.01 20.3444 187.128 19.4466 187.365 18.6172C187.611 17.7878 187.971 17.0586 188.445 16.4297C188.928 15.8008 189.525 15.3132 190.236 14.9668C190.947 14.6113 191.768 14.4336 192.697 14.4336C193.408 14.4336 194.055 14.5384 194.639 14.748C195.222 14.9486 195.719 15.2721 196.129 15.7188C196.548 16.1562 196.867 16.7305 197.086 17.4414C197.314 18.1523 197.428 19.0228 197.428 20.0527V29.5H193.477V20.0527C193.477 19.3691 193.385 18.8496 193.203 18.4941C193.03 18.1296 192.775 17.8789 192.438 17.7422C192.109 17.5964 191.717 17.5234 191.262 17.5234C190.788 17.5234 190.373 17.6191 190.018 17.8105C189.662 17.9928 189.366 18.248 189.129 18.5762C188.892 18.9043 188.714 19.2871 188.596 19.7246C188.477 20.153 188.418 20.6224 188.418 21.1328Z" fill="white"/>
</svg>
